<?xml version="1.0" standalone="no"?>
<!DOCTYPE svg PUBLIC "-//W3C//DTD SVG 20010904//EN"
 "http://www.w3.org/TR/2001/REC-SVG-20010904/DTD/svg10.dtd">
<svg version="1.0" xmlns="http://www.w3.org/2000/svg"
 width="486.000000pt" height="283.000000pt" viewBox="0 0 486.000000 283.000000"
 preserveAspectRatio="xMidYMid meet">
<metadata>
Created by potrace 1.15, written by Peter Selinger 2001-2017
</metadata>
<g transform="translate(0.000000,283.000000) scale(0.100000,-0.100000)"
fill="#000000" stroke="none">
<path d="M1830 1810 l0 -40 -250 0 -250 0 0 -130 0 -130 25 0 c25 0 25 0 25
95 l0 95 255 0 255 0 0 75 0 75 -30 0 c-28 0 -30 -2 -30 -40z"/>
<path d="M2525 1828 c4 -12 79 -244 166 -515 88 -271 159 -497 159 -503 0 -6
-25 -10 -59 -10 l-59 0 11 -35 10 -35 73 0 c40 0 75 3 77 8 2 4 -76 255 -173
557 -137 423 -182 551 -195 553 -14 3 -16 -1 -10 -20z"/>
<path d="M4647 1828 c-8 -13 -77 -138 -153 -278 l-139 -255 -5 -245 -5 -245
-42 -3 c-42 -3 -43 -4 -43 -38 l0 -34 70 0 70 0 0 234 0 235 170 314 c94 173
170 319 170 326 0 6 -17 11 -40 11 -30 0 -43 -5 -53 -22z"/>
<path d="M3273 1780 c-81 -25 -134 -177 -72 -210 26 -14 29 -13 29 14 0 33 39
86 80 110 27 16 52 21 108 21 78 -1 86 6 53 46 -16 20 -29 24 -92 26 -41 1
-88 -2 -106 -7z"/>
<path d="M900 1779 c0 -4 7 -26 16 -50 26 -67 23 -218 -5 -290 -29 -76 -79
-131 -143 -159 -46 -21 -73 -24 -215 -28 l-163 -4 0 -224 0 -224 -40 0 c-39 0
-40 -1 -40 -35 l0 -35 70 0 70 0 0 224 0 224 168 4 c150 3 172 6 215 27 108
53 165 180 154 346 -3 60 -12 98 -30 137 -24 50 -56 100 -57 87z"/>
<path d="M3656 1765 c17 -47 34 -121 34 -147 0 -27 -2 -28 -46 -28 -43 0 -46
-2 -40 -22 3 -13 6 -29 6 -35 0 -9 20 -13 66 -13 l67 0 -6 59 c-5 59 -39 148
-72 186 l-17 20 8 -20z"/>
<path d="M390 1615 l0 -155 30 0 30 0 0 121 0 120 140 -3 c138 -3 140 -3 140
19 0 47 -20 53 -186 53 l-154 0 0 -155z"/>
<path d="M2366 1507 c-21 -73 -40 -138 -43 -144 -3 -9 7 -13 34 -13 l39 0 25
83 c24 77 24 86 11 137 -7 30 -16 58 -20 62 -4 4 -24 -52 -46 -125z"/>
<path d="M3130 1405 c0 -17 53 -77 88 -100 27 -17 287 -115 307 -115 1 0 0 11
-3 25 -5 31 -26 42 -157 85 -105 34 -188 72 -217 98 -10 8 -18 11 -18 7z"/>
<path d="M1800 1340 l0 -40 -235 0 -235 0 0 -145 0 -145 25 0 25 0 0 110 0
110 240 0 240 0 0 75 0 75 -30 0 c-28 0 -30 -2 -30 -40z"/>
<path d="M3695 1250 c22 -95 25 -133 15 -192 -22 -117 -87 -205 -189 -251 -37
-17 -65 -22 -141 -21 -82 0 -103 3 -155 27 -33 16 -71 38 -84 50 l-25 22 21
-35 c52 -86 168 -140 301 -140 138 0 244 65 298 182 25 55 28 75 29 158 0 98
-16 153 -60 205 -16 20 -16 20 -10 -5z"/>
<path d="M2245 1088 c-8 -29 -29 -105 -47 -168 l-33 -115 -35 -3 c-38 -4 -50
-15 -50 -49 0 -22 4 -23 69 -23 l69 0 14 48 c8 26 30 102 49 170 l34 122 133
0 132 0 -6 28 c-4 15 -9 30 -11 35 -2 4 -71 7 -153 7 l-149 0 -16 -52z"/>
<path d="M1857 873 c-4 -3 -7 -21 -7 -40 l0 -33 -305 0 -305 0 0 -35 0 -35
335 0 335 0 0 75 c0 72 -1 75 -23 75 -13 0 -27 -3 -30 -7z"/>
</g>
</svg>
